<svg xmlns="http://www.w3.org/2000/svg" viewBox="0 0 100 100">
  <!-- Right side (Solid Diamond) -->
  <path d="M50 10 L85 40 L50 50 Z" fill="#1A1C29" />
  <path d="M85 40 L75 75 L50 50 Z" fill="#C09E60" />
  <path d="M75 75 L50 90 L50 50 Z" fill="#1A1C29" />
  
  <path d="M50 10 L65 35 L50 50 Z" fill="#C09E60" />
  <path d="M50 90 L60 65 L50 50 Z" fill="#C09E60" />

  <!-- Left side (Fragmented Pieces) -->
  <path d="M40 20 L45 35 L30 30 Z" fill="#1A1C29" />
  <path d="M25 45 L40 50 L30 60 Z" fill="#C09E60" />
  <path d="M42 65 L48 80 L35 75 Z" fill="#1A1C29" />
  <path d="M15 35 L22 42 L10 45 Z" fill="#C09E60" />
  <path d="M20 70 L28 78 L15 85 Z" fill="#C09E60" />
</svg>
